<?xml version="1.0" encoding="UTF-8" standalone="no"?>
<!-- Created with Inkscape (http://www.inkscape.org/) -->

<svg
   width="190.60297mm"
   height="50.232338mm"
   viewBox="0 0 190.60297 50.232338"
   version="1.1"
   id="svg5"
   inkscape:version="1.2.2 (732a01da63, 2022-12-09)"
   sodipodi:docname="drawing5.svg"
   xmlns:inkscape="http://www.inkscape.org/namespaces/inkscape"
   xmlns:sodipodi="http://sodipodi.sourceforge.net/DTD/sodipodi-0.dtd"
   xmlns="http://www.w3.org/2000/svg"
   xmlns:svg="http://www.w3.org/2000/svg">
  <sodipodi:namedview
     id="namedview7"
     pagecolor="#505050"
     bordercolor="#ffffff"
     borderopacity="1"
     inkscape:showpageshadow="0"
     inkscape:pageopacity="0"
     inkscape:pagecheckerboard="1"
     inkscape:deskcolor="#505050"
     inkscape:document-units="mm"
     showgrid="false"
     inkscape:zoom="0.50458838"
     inkscape:cx="113.95427"
     inkscape:cy="112.96336"
     inkscape:window-width="1350"
     inkscape:window-height="1041"
     inkscape:window-x="26"
     inkscape:window-y="0"
     inkscape:window-maximized="0"
     inkscape:current-layer="layer1" />
  <defs
     id="defs2">
    <rect
       x="201.10301"
       y="249.36774"
       width="341.87512"
       height="192.25449"
       id="rect5394" />
    <rect
       x="46.642029"
       y="540.36493"
       width="171.77917"
       height="101.24732"
       id="rect3848" />
  </defs>
  <g
     inkscape:label="Layer 1"
     inkscape:groupmode="layer"
     id="layer1"
     transform="translate(-6.0957813,-65.698975)">
    <path
       style="fill:#8f0000;fill-opacity:1;stroke-width:0.4"
       d="m 31.187601,65.676483 c -14.867087,0 -25.0604297,12.145925 -25.0604297,25.060438 0,12.871899 10.2026987,25.060429 25.0604297,25.060429 10.942038,-0.0419 17.568167,-6.46268 20.333815,-10.41362 0.890505,-1.33072 0.239004,-2.77067 -0.671995,-3.29126 C 47.226626,100.00085 35.09478,92.992731 31.187605,90.736921 35.116469,88.468591 47.083491,81.599702 50.721886,79.499073 51.71263,78.899657 52.39459,77.352751 51.42337,76.021375 49.135092,72.445016 42.071934,65.676483 31.187601,65.676483 Z"
       id="path810"
       sodipodi:nodetypes="csccccccc" />
    <text
       xml:space="preserve"
       style="font-style:normal;font-variant:normal;font-weight:bold;font-stretch:normal;font-size:63.5px;font-family:sans-serif;-inkscape-font-specification:'sans-serif Bold';fill:#ffffff;stroke-width:0.264583"
       x="86.197777"
       y="59.167858"
       id="text712"><tspan
         sodipodi:role="line"
         id="tspan710"
         style="stroke-width:0.264583"
         x="86.197777"
         y="59.167858" /></text>
    <circle
       style="fill:#666666;stroke-width:0.264583"
       id="path402"
       cx="31.159586"
       cy="90.792908"
       r="12.868871" />
    <circle
       style="fill:#000000;stroke-width:0.264583"
       id="path456"
       cx="31.082405"
       cy="90.551949"
       r="9.6072893" />
    <circle
       style="fill:#1a1a1a;stroke-width:0.264583"
       id="path510"
       cx="31.082407"
       cy="90.709946"
       r="4.8020678" />
    <circle
       style="fill:#000000;stroke-width:0.264583"
       id="path512"
       cx="31.139042"
       cy="90.831169"
       r="2.2975652" />
    <circle
       style="fill:#ffffff;stroke-width:0.264583"
       id="path568"
       cx="26.182495"
       cy="85.988632"
       r="1.9699489" />
    <path
       style="fill:#8f0000;fill-opacity:1;stroke-width:0.398684"
       d="m 119.15358,79.057993 c 3.2261,0.01024 3.35522,2.293559 3.35363,3.240357 -0.002,1.012946 -0.27631,3.463011 -3.23792,3.600477 -1.56017,0.07242 0.8945,8.482753 1.29225,10.250005 3.71783,0.353582 3.7632,3.488658 3.76023,3.930868 -0.003,0.46249 -0.0372,3.73451 -3.71204,3.87107 -1.09056,0.0405 -1.30226,7.18462 -0.13206,11.95844 16.47009,-0.0127 18.98277,-10.12282 18.87138,-14.3112 -0.27154,-10.21057 -8.98698,-11.653292 -8.47037,-11.505267 4.30881,-1.13225 6.80963,-4.831078 6.75397,-10.314565 -0.11279,-11.112067 -10.58989,-12.892556 -18.89328,-12.69598 -9.78444,-0.0052 -13.00459,-6.29e-4 -18.36807,-0.005 -0.818535,-0.03837 -1.854428,0.677635 -1.909663,1.937322 0.0195,3.5776 -0.0031,40.4314 -6e-5,45.06496 0.03427,0.80542 0.501638,1.74136 1.765573,1.83658 2.36851,-0.005 17.15294,-9.9e-4 20.43463,-0.003 3.88419,-3.82572 2.519,-9.59872 0.29245,-11.96976 -3.44554,0.002 -5.9282,0.0237 -7.20475,8e-4 -0.0142,-1.84124 -0.0202,-5.872239 -0.002,-7.786072 2.08555,-0.01709 6.03598,-0.01808 7.26166,-9.93e-4 0.83121,-1.284336 0.45169,-8.506761 -1.48429,-10.272981 -2.94584,0.0051 -4.16513,0.0403 -5.79006,0.0074 0.0161,-1.992368 -0.0228,-4.964702 0.0379,-6.814219 1.57549,-0.03118 4.05157,-0.04582 4.9703,-0.0189 z"
       id="path2440-1"
       sodipodi:nodetypes="csscsscscsccccccccccccccc" />
    <rect
       style="fill:#8f0000;fill-opacity:1;stroke-width:1.08691;stroke-dasharray:none"
       id="rect2586"
       width="51.620258"
       height="21.671476"
       x="144.98834"
       y="67.318497"
       rx="3.3109202"
       ry="3.3109202" />
    <path
       style="fill:#ffffff;stroke-width:0.4"
       d="m 149.68826,84.382097 c 0.009,0.24101 0.058,0.37468 0.54809,0.50443 1.25233,0.20687 2.41151,0.0861 2.96861,0.0664 0.52547,-0.0925 0.91165,-0.14481 0.91264,-0.52544 -0.002,-4.221695 -5.5e-4,-4.210255 0.0165,-7.853216 1.02479,-1.396222 1.91698,-1.947401 2.65078,-2.146347 0.93204,-0.231986 1.62419,0.124008 2.12628,0.184665 0.7664,0.258899 0.72253,-0.39777 0.82774,-0.630105 0.0226,-1.240063 0.0272,-0.733665 -0.0201,-2.301515 -0.1134,-0.3784 -0.0675,-0.285045 -0.62301,-0.480823 -1.18326,-0.269704 -2.09471,-0.213567 -2.73468,-0.0035 -0.91643,0.290478 -1.89427,1.067622 -2.89113,2.195197 0.004,-0.847684 -4.3e-4,-0.94918 0.006,-1.59271 -0.0113,-0.106182 -0.0555,-0.349656 -0.56284,-0.446024 -0.52495,-0.113889 -1.89444,-0.140362 -2.65845,0.0035 -0.16209,0.03718 -0.29785,0.07383 -0.4157,0.162786 -0.0249,0.02404 -0.14479,0.109872 -0.14977,0.27049 -0.0987,7.138557 0.0131,6.7101 -8.1e-4,12.592252 z"
       id="path3123"
       sodipodi:nodetypes="cccccccccccccccccc" />
    <path
       style="fill:#ffffff;stroke-width:0.4"
       d="m 165.65002,79.013973 h 9.84827"
       id="path3136" />
    <path
       style="fill:#ffffff;stroke-width:0.4"
       d="m 176.56658,77.945686 0.0334,-1.26859"
       id="path3138" />
    <path
       style="fill:#ffffff;stroke-width:0.4"
       d="m 165.6914,79.033966 c 1.77192,-6.79e-4 7.85149,0.0062 9.62622,-2.97e-4 0.56592,-0.01272 1.17843,-0.238656 1.27815,-1.020665 0.0232,-0.199099 0.0537,-1.289102 -0.0843,-2.053725 -0.12345,-0.758422 -0.4162,-1.71006 -0.98525,-2.444694 -0.56284,-0.738768 -1.21797,-1.311299 -2.36267,-1.805261 -1.05375,-0.465024 -2.46344,-0.725212 -3.86932,-0.707315 -1.40589,0.0179 -3.11591,0.219899 -4.42541,0.908105 -1.17659,0.544226 -1.84039,1.285417 -2.32592,1.877409 -0.7292,1.023936 -1.29198,2.255156 -1.36915,4.319905 -0.0107,1.765712 0.36956,3.018485 0.70381,3.642039 0.53362,1.09426 1.1713,1.76501 2.37751,2.42471 1.15636,0.65416 2.85904,0.97033 4.35458,1.04421 1.4457,0.12925 3.11512,-0.0713 4.22548,-0.2416 1.11037,-0.1703 1.80298,-0.38358 2.42035,-0.59715 0.40649,-0.18564 0.51996,-0.39147 0.57566,-0.772 0.0229,-0.30137 0.0894,-0.89129 -0.0196,-1.4911 -0.0508,-0.24262 -0.17733,-0.65423 -1.23071,-0.26447 -0.76385,0.18978 -1.06904,0.31713 -1.93734,0.47253 -0.97218,0.15158 -0.95492,0.20748 -2.9019,0.23185 -1.20493,-0.0421 -2.01481,-0.23541 -2.82695,-0.74813 -0.67923,-0.534871 -0.79521,-0.844257 -1.02815,-1.420722 -0.13327,-0.42141 -0.17209,-0.714714 -0.19516,-1.353629 z"
       id="path3161"
       sodipodi:nodetypes="cccccccccccccccccccccccc" />
    <path
       style="fill:#8f0000;fill-opacity:1;stroke-width:0.4"
       d="m 172.31113,76.739987 c 0.0323,-0.595988 -0.0829,-1.344069 -0.40263,-1.871529 -0.16038,-0.338611 -0.70141,-0.956149 -1.4689,-1.144832 -0.76748,-0.259502 -2.05463,-0.289685 -2.92986,0.111955 -0.3854,0.189184 -0.82359,0.410035 -1.27968,1.084681 -0.32626,0.497601 -0.50498,1.188439 -0.53414,1.819428 3.12512,0.0019 3.0538,2.32e-4 6.61521,2.97e-4 z"
       id="path3159"
       sodipodi:nodetypes="ccccccc" />
    <path
       style="fill:#ffffff;fill-opacity:1;stroke-width:0.4"
       d="m 191.06207,75.119637 c 0.25207,0.07579 0.58292,0.195892 0.8507,-0.268818 0.25289,-0.666763 0.14003,-1.80035 0.0849,-2.027107 -0.0168,-0.05661 0.0103,-0.404027 -0.54919,-0.768549 -0.46589,-0.360269 -1.26122,-0.69132 -2.43179,-0.881815 -1.17058,-0.190495 -3.20149,-0.230489 -4.54786,0.144377 -1.34637,0.374866 -2.44727,0.937664 -3.3387,1.88291 -0.89143,0.945246 -1.42712,1.987517 -1.70244,3.534212 -0.22419,1.405326 -0.158,3.34504 0.38801,4.63508 0.52495,1.272 1.19614,2.06061 2.43936,2.84542 1.01162,0.64645 2.15728,0.83195 3.29659,0.96251 1.22307,0.11531 2.37253,0.0457 3.44523,-0.17549 0.91808,-0.18825 1.65769,-0.39041 2.5662,-0.91863 0.43422,-0.31341 0.38372,-0.29722 0.51595,-0.80258 0.0791,-0.49047 0.13529,-1.6034 -0.12031,-2.221614 -0.15351,-0.316206 -0.54506,-0.241497 -0.83048,-0.06635 -0.47896,0.287872 -0.99351,0.669404 -2.03019,1.028854 -0.89205,0.29778 -1.92915,0.27515 -2.63201,0.14717 -0.64758,-0.12372 -1.14088,-0.38309 -1.57113,-0.79686 -0.58764,-0.603056 -0.81895,-1.299233 -0.97314,-2.164182 -0.13292,-0.869202 -0.0842,-2.047527 0.13453,-2.830895 0.3038,-1.053481 0.75725,-1.533806 1.40202,-1.980192 0.75749,-0.437879 1.3897,-0.476425 2.10397,-0.47913 1.2162,0.02495 1.69232,0.326048 2.25947,0.539475 0.0333,-0.0014 1.11579,0.633195 1.24026,0.662204 z"
       id="path3232"
       sodipodi:nodetypes="ccccccccccccccccccccccccc" />
    <path
       style="fill:#8f0000;fill-opacity:1;stroke-width:0.4"
       d="m 68.069712,114.17695 c 0.04384,0.82565 0.675803,1.67069 1.782647,1.75277 1.577625,0 10.337314,-0.003 11.310276,-0.003 1.187936,-0.0579 1.799261,-1.10663 1.775915,-1.81938 0,-0.89667 0.0055,-30.607591 0.0055,-34.961726 1.373899,0 8.80444,-0.0061 10.971753,-0.0061 1.043333,-0.0046 1.853172,-0.768748 1.92019,-1.712231 0,-1.808451 0.01021,-6.704946 0.01021,-8.46579 -0.08801,-1.493452 -1.380867,-1.843375 -1.855758,-1.821404 -1.787762,0 -30.931261,-0.0035 -37.027701,-0.0035 -0.926527,0.07783 -1.724763,0.677268 -1.813719,1.75371 0,1.743415 -0.0072,6.754003 -0.0072,8.48533 0.0737,0.894093 0.705997,1.618213 1.658628,1.766706 2.948641,0 8.09298,0 11.262544,0 0,5.287671 0.0067,29.784295 0.0067,35.034225 z"
       id="path7989"
       sodipodi:nodetypes="ccccccccccccccc" />
    <path
       style="opacity:0.12;fill:#b3b3b3;fill-opacity:1;stroke-width:0.4"
       d="M 41.411832,67.937638 C 40.658169,76.919778 37.128974,84.947516 31.223631,90.872512 25.309527,96.806299 16.444692,99.962726 8.3458661,101.14067 6.6432207,97.293039 6.0719726,93.762142 6.0957813,90.369955 6.2452293,83.254278 9.3168733,77.03745 13.816884,72.643399 c 4.500011,-4.394051 10.687755,-6.854807 17.041251,-6.944424 1.579204,-0.02109 6.007668,0.109573 10.553697,2.238663 z"
       id="path9591"
       sodipodi:nodetypes="cscczcc" />
  </g>
</svg>
