<?xml version="1.0" encoding="UTF-8" standalone="no"?>
<!-- Created with Inkscape (http://www.inkscape.org/) -->

<svg
   width="45.850365mm"
   height="50.120869mm"
   viewBox="0 0 45.850366 50.120869"
   version="1.1"
   id="svg5"
   inkscape:version="1.2.2 (732a01da63, 2022-12-09)"
   sodipodi:docname="favicon.svg"
   xmlns:inkscape="http://www.inkscape.org/namespaces/inkscape"
   xmlns:sodipodi="http://sodipodi.sourceforge.net/DTD/sodipodi-0.dtd"
   xmlns="http://www.w3.org/2000/svg"
   xmlns:svg="http://www.w3.org/2000/svg">
  <sodipodi:namedview
     id="namedview7"
     pagecolor="#505050"
     bordercolor="#ffffff"
     borderopacity="1"
     inkscape:showpageshadow="0"
     inkscape:pageopacity="0"
     inkscape:pagecheckerboard="1"
     inkscape:deskcolor="#505050"
     inkscape:document-units="mm"
     showgrid="false"
     inkscape:zoom="0.50458838"
     inkscape:cx="113.95427"
     inkscape:cy="110.98155"
     inkscape:window-width="1350"
     inkscape:window-height="1041"
     inkscape:window-x="26"
     inkscape:window-y="0"
     inkscape:window-maximized="1"
     inkscape:current-layer="layer1" />
  <defs
     id="defs2">
    <rect
       x="201.10301"
       y="249.36774"
       width="341.87512"
       height="192.25449"
       id="rect5394" />
    <rect
       x="46.642029"
       y="540.36493"
       width="171.77917"
       height="101.24732"
       id="rect3848" />
  </defs>
  <g
     inkscape:label="Layer 1"
     inkscape:groupmode="layer"
     id="layer1"
     transform="translate(-6.0950711,-65.676483)">
    <path
       style="fill:#8f0000;fill-opacity:1;stroke-width:0.4"
       d="m 31.187601,65.676483 c -14.867087,0 -25.0604297,12.145925 -25.0604297,25.060438 0,12.871899 10.2026987,25.060429 25.0604297,25.060429 10.942038,-0.0419 17.568167,-6.46268 20.333815,-10.41362 0.890505,-1.33072 0.239004,-2.77067 -0.671995,-3.29126 C 47.226626,100.00085 35.09478,92.992731 31.187605,90.736921 35.116469,88.468591 47.083491,81.599702 50.721886,79.499073 51.71263,78.899657 52.39459,77.352751 51.42337,76.021375 49.135092,72.445016 42.071934,65.676483 31.187601,65.676483 Z"
       id="path810"
       sodipodi:nodetypes="csccccccc" />
    <text
       xml:space="preserve"
       style="font-style:normal;font-variant:normal;font-weight:bold;font-stretch:normal;font-size:63.5px;font-family:sans-serif;-inkscape-font-specification:'sans-serif Bold';fill:#ffffff;stroke-width:0.264583"
       x="86.197777"
       y="59.167858"
       id="text712"><tspan
         sodipodi:role="line"
         id="tspan710"
         style="stroke-width:0.264583"
         x="86.197777"
         y="59.167858" /></text>
    <circle
       style="fill:#666666;stroke-width:0.264583"
       id="path402"
       cx="31.159586"
       cy="90.792908"
       r="12.868871" />
    <circle
       style="fill:#000000;stroke-width:0.264583"
       id="path456"
       cx="31.082405"
       cy="90.551949"
       r="9.6072893" />
    <circle
       style="fill:#1a1a1a;stroke-width:0.264583"
       id="path510"
       cx="31.082407"
       cy="90.709946"
       r="4.8020678" />
    <circle
       style="fill:#000000;stroke-width:0.264583"
       id="path512"
       cx="31.139042"
       cy="90.831169"
       r="2.2975652" />
    <circle
       style="fill:#ffffff;stroke-width:0.264583"
       id="path568"
       cx="26.182495"
       cy="85.988632"
       r="1.9699489" />
    <path
       style="opacity:0.12;fill:#b3b3b3;fill-opacity:1;stroke-width:0.4"
       d="M 41.411832,67.937638 C 40.658169,76.919778 37.128974,84.947516 31.223631,90.872512 25.309527,96.806299 16.444692,99.962726 8.3458661,101.14067 6.6432207,97.293039 6.0719726,93.762142 6.0957813,90.369955 6.2452293,83.254278 9.3168733,77.03745 13.816884,72.643399 c 4.500011,-4.394051 10.687755,-6.854807 17.041251,-6.944424 1.579204,-0.02109 6.007668,0.109573 10.553697,2.238663 z"
       id="path9591"
       sodipodi:nodetypes="cscczcc" />
  </g>
</svg>
